# xmcd
#
# Track frame offsets: 
#        150
#        13870
#        24504
#        40579
#        62624
#        80879
#        95999
#        111732
#        124923
#
# Disc length: 1837 seconds
#
# Revision: 0
# Processed by: cddbd v1.5.2PL0 Copyright (c) Steve Scherf et al.
# Submitted via: ExactAudioCopy v1.3
#
DISCID=7e072b09
DTITLE=Lawrence Lebo - Lawrence Lebo - Don't Call Her Larry, Volume 3 
DTITLE=American Roots
DYEAR=2010
DGENRE=Blues
TTITLE0=On Time
TTITLE1=Cowboy Swinging Boogie Woogie
TTITLE2=It's Not the First Time
TTITLE3=Rose, Rose
TTITLE4=Lawrence's Working Girl Blues
TTITLE5=Was That Love
TTITLE6=Walking the Back Streets
TTITLE7=I Should Care
TTITLE8=A Promise That I Can Keep
EXTD=
EXTT0=
EXTT1=
EXTT2=
EXTT3=
EXTT4=
EXTT5=
EXTT6=
EXTT7=
EXTT8=
PLAYORDER=
